<svg width="241" height="266" viewBox="0 0 241 266" xmlns="http://www.w3.org/2000/svg"><title>Fill 2 + Fill 3 + Fill 4</title><g fill="none" fill-rule="evenodd"><path d="M133.76 212.32c28.092 0 51.052-11.124 68.885-33.362l36.643 37.74c-29.1 32.717-63.34 49.087-102.782 49.087-39.448 0-71.938-12.433-97.46-37.36C13.51 203.513.748 172.066.748 134.083c0-37.988 13.014-69.677 39.032-95.087C65.79 13.59 97.597.888 135.214.888c42.02 0 77.2 16.03 105.538 48.015l-35.55 40.304c-18.064-22.492-40.55-33.72-67.43-33.72-21.47 0-39.874 7.034-55.14 21.077-15.254 14.038-22.867 32.97-22.867 56.786 0 23.827 7.193 42.926 21.603 57.33 14.393 14.42 31.882 21.64 52.392 21.64" fill="#333"/><path d="M173.638 146.478l-41.316-41.31c-10.478-10.48-27.44-10.48-37.95 0-10.484 10.504-10.484 27.482 0 37.993l41.305 41.312 37.96-37.994" fill="#FFF"/><path d="M97.742 146.478l41.35-41.31c10.413-10.48 27.444-10.48 37.96 0 10.48 10.504 10.48 27.482 0 37.993l-41.337 41.312-37.973-37.994" fill="#FFF"/></g></svg>