<?xml version="1.0" encoding="UTF-8" standalone="no"?>
<svg width="241px" height="266px" viewBox="0 0 241 266" version="1.1" xmlns="http://www.w3.org/2000/svg" xmlns:xlink="http://www.w3.org/1999/xlink" xmlns:sketch="http://www.bohemiancoding.com/sketch/ns">
    <!-- Generator: Sketch 3.3.2 (12043) - http://www.bohemiancoding.com/sketch -->
    <title>Fill 2 + Fill 3 + Fill 4</title>
    <desc>Created with Sketch.</desc>
    <defs></defs>
    <g id="wecare" stroke="none" stroke-width="1" fill="none" fill-rule="evenodd" sketch:type="MSPage">
        <g id="login-copy" sketch:type="MSArtboardGroup" transform="translate(-585.000000, -181.000000)">
            <g id="Imported-Layers" sketch:type="MSLayerGroup" transform="translate(581.000000, 181.000000)">
                <g id="Fill-2-+-Fill-3-+-Fill-4" transform="translate(4.000000, 0.000000)" sketch:type="MSShapeGroup">
                    <path d="M133.76,212.320769 C161.851538,212.320769 184.811538,201.196154 202.645385,178.957692 L239.287692,216.698462 C210.189231,249.415385 175.948462,265.784615 136.506154,265.784615 C97.0584615,265.784615 64.5676923,253.351538 39.0446154,228.426154 C13.5107692,203.511538 0.749230769,172.065385 0.749230769,134.082308 C0.749230769,96.0938462 13.7638462,64.4053846 39.7823077,38.9953846 C65.79,13.5907692 97.5969231,0.888461538 135.213846,0.888461538 C177.235385,0.888461538 212.413077,16.9184615 240.752308,48.9030769 L205.203077,89.2069231 C187.137692,66.7153846 164.651538,55.4884615 137.771538,55.4884615 C116.303077,55.4884615 97.8984615,62.5207692 82.6330769,76.5638462 C67.3784615,90.6015385 59.7646154,109.533846 59.7646154,133.35 C59.7646154,157.176923 66.9584615,176.276154 81.3676923,190.68 C95.7607692,205.1 113.25,212.320769 133.76,212.320769" id="Fill-2" fill="#333333"></path>
                    <path d="M173.638462,146.477692 L132.322308,105.166923 C121.843846,94.6884615 104.882308,94.6884615 94.3715385,105.166923 C83.8876923,115.672308 83.8876923,132.65 94.3715385,143.160769 L135.676923,184.471538 L173.638462,146.477692" id="Fill-3" fill="#FFFFFF"></path>
                    <path d="M97.7423077,146.477692 L139.090769,105.166923 C149.504615,94.6884615 166.536154,94.6884615 177.052308,105.166923 C187.530769,115.672308 187.530769,132.65 177.052308,143.160769 L135.714615,184.471538 L97.7423077,146.477692" id="Fill-4" fill="#FFFFFF"></path>
                </g>
            </g>
        </g>
    </g>
</svg>